<svg width="12" height="16" viewBox="0 0 12 16" fill="none" xmlns="http://www.w3.org/2000/svg">
<path d="M8 12.4601H6.66667V13.8446H8V12.4601ZM8 12.4601H9.33333V11.0756H12V9.69119H9.33333V8.30673H10.6667V6.92228H8V12.4601ZM0 15.229H1.33333V13.8446H0V15.229ZM1.33333 13.8446H2.66667V12.4601H1.33333V13.8446ZM5.33333 15.229H6.66667V13.8446H5.33333V15.229ZM4 13.8446H5.33333V12.4601H4V13.8446ZM2.66667 12.4601H4V6.92228H1.33333V8.30673H2.66667V9.69119H0V11.0756H2.66667V12.4601ZM0 6.92228H1.33333V5.53782H0V6.92228ZM9.33333 13.8446H10.6667V12.4601H9.33333V13.8446ZM10.6667 15.229H12V13.8446H10.6667V15.229ZM0 2.76891H1.33333V1.38446H0V2.76891ZM4 6.92228H8V4.15337H6.66667V5.53782H5.33333V4.15337H4V6.92228ZM1.33333 1.38446H4V0H1.33333V1.38446ZM5.33333 4.15337H6.66667V2.76891H5.33333V4.15337ZM4 2.76891H5.33333V1.38446H4V2.76891ZM6.66667 2.76891H8V1.38446H6.66667V2.76891ZM10.6667 6.92228H12V5.53782H10.6667V6.92228ZM8 1.38446H10.6667V0H8V1.38446ZM10.6667 2.76891H12V1.38446H10.6667V2.76891Z" fill="white"/>
</svg>
