<svg width="54" height="39" viewBox="0 0 54 39" fill="none" xmlns="http://www.w3.org/2000/svg">
<path d="M9.81818 39H49.0909V34.125H9.81818V39ZM4.90909 34.125H9.81818V29.25H4.90909V34.125ZM0 29.25H4.90909V14.625H0V29.25ZM4.90909 14.625H9.81818V9.75H4.90909V14.625ZM9.81818 9.75H14.7273V4.875H9.81818V9.75ZM14.7273 4.875H24.5455V0H14.7273V4.875ZM24.5455 9.75H29.4545V4.875H24.5455V9.75ZM49.0909 34.125H54V19.5H49.0909V34.125ZM29.4545 14.625H44.1818V9.75H29.4545V14.625ZM44.1818 19.5H49.0909V14.625H44.1818V19.5Z" fill="black"/>
</svg>
