<svg width="14" height="18" viewBox="0 0 14 18" fill="none" xmlns="http://www.w3.org/2000/svg">
<path d="M3.11111 1.63636H1.55556V3.27273H3.11111V1.63636ZM3.11111 1.63636H10.8889V0H3.11111V1.63636ZM6.22222 18H7.77778V16.3636H6.22222V18ZM4.66667 16.3636H6.22222V14.7273H4.66667V16.3636ZM3.11111 14.7273H4.66667V13.0909H3.11111V14.7273ZM1.55556 13.0909H3.11111V9.81818H1.55556V13.0909ZM7.77778 16.3636H9.33333V14.7273H7.77778V16.3636ZM0 9.81818H1.55556V3.27273H0V9.81818ZM9.33333 14.7273H10.8889V13.0909H9.33333V14.7273ZM3.11111 8.18182H4.66667V4.90909H3.11111V8.18182ZM4.66667 9.81818H9.33333V8.18182H4.66667V9.81818ZM10.8889 13.0909H12.4444V9.81818H10.8889V13.0909ZM4.66667 4.90909H9.33333V3.27273H4.66667V4.90909ZM9.33333 8.18182H10.8889V4.90909H9.33333V8.18182ZM12.4444 9.81818H14V3.27273H12.4444V9.81818ZM10.8889 3.27273H12.4444V1.63636H10.8889V3.27273Z" fill="#FF0000"/>
</svg>
