<svg width="12" height="15" viewBox="0 0 12 15" fill="none" xmlns="http://www.w3.org/2000/svg">
<path d="M2.66667 15H9.33333V9.54545H8V10.9091H6.66667V8.18182H5.33333V10.9091H4V9.54545H2.66667V15ZM4 13.6364V12.2727H8V13.6364H4ZM1.33333 9.54545H2.66667V8.18182H1.33333V9.54545ZM0 8.18182H1.33333V2.72727H0V8.18182ZM4 8.18182H5.33333V6.81818H6.66667V8.18182H8V5.45455H4V8.18182ZM1.33333 2.72727H2.66667V1.36364H1.33333V2.72727ZM9.33333 9.54545H10.6667V8.18182H9.33333V9.54545ZM2.66667 1.36364H9.33333V0H2.66667V1.36364ZM10.6667 8.18182H12V2.72727H10.6667V8.18182ZM9.33333 2.72727H10.6667V1.36364H9.33333V2.72727Z" fill="white"/>
</svg>
