<svg width="15" height="18" viewBox="0 0 15 18" fill="none" xmlns="http://www.w3.org/2000/svg">
<path d="M3.33333 1.63636H1.66667V3.27273H3.33333V1.63636ZM3.33333 1.63636H11.6667V0H3.33333V1.63636ZM6.66667 18H8.33333V16.3636H6.66667V18ZM5 16.3636H6.66667V14.7273H5V16.3636ZM3.33333 14.7273H5V13.0909H3.33333V14.7273ZM1.66667 13.0909H3.33333V9.81818H1.66667V13.0909ZM8.33333 16.3636H10V14.7273H8.33333V16.3636ZM0 9.81818H1.66667V3.27273H0V9.81818ZM10 14.7273H11.6667V13.0909H10V14.7273ZM3.33333 8.18182H5V4.90909H3.33333V8.18182ZM5 9.81818H10V8.18182H5V9.81818ZM11.6667 13.0909H13.3333V9.81818H11.6667V13.0909ZM5 4.90909H10V3.27273H5V4.90909ZM10 8.18182H11.6667V4.90909H10V8.18182ZM13.3333 9.81818H15V3.27273H13.3333V9.81818ZM11.6667 3.27273H13.3333V1.63636H11.6667V3.27273Z" fill="black"/>
</svg>
