<svg width="19" height="19" viewBox="0 0 19 19" fill="none" xmlns="http://www.w3.org/2000/svg">
<path d="M3.45455 8.63636H8.63636V3.45455H6.90909V6.90909H3.45455V8.63636ZM1.72727 12.0909H8.63636V10.3636H1.72727V12.0909ZM0 10.3636H1.72727V6.90909H3.45455V5.18182H1.72727V3.45455H0V10.3636ZM8.63636 13.8182H10.3636V12.0909H8.63636V13.8182ZM10.3636 15.5455H12.0909V13.8182H10.3636V15.5455ZM12.0909 17.2727H13.8182V15.5455H12.0909V17.2727ZM13.8182 19H17.2727V17.2727H13.8182V19ZM17.2727 17.2727H19V13.8182H17.2727V17.2727ZM15.5455 13.8182H17.2727V12.0909H15.5455V13.8182ZM13.8182 12.0909H15.5455V10.3636H13.8182V12.0909ZM12.0909 10.3636H13.8182V8.63636H12.0909V10.3636ZM5.18182 3.45455H6.90909V1.72727H10.3636V0H3.45455V1.72727H5.18182V3.45455ZM10.3636 8.63636H12.0909V1.72727H10.3636V8.63636Z" fill="white"/>
</svg>
