<svg width="18" height="18" viewBox="0 0 18 18" fill="none" xmlns="http://www.w3.org/2000/svg">
<path d="M9.81818 3.27273H11.4545V1.63636H13.0909V0H8.18182V1.63636H9.81818V3.27273ZM1.63636 14.7273H3.27273V13.0909H1.63636V14.7273ZM3.27273 16.3636H4.90909V14.7273H3.27273V16.3636ZM0 13.0909H1.63636V11.4545H3.27273V9.81818H1.63636V8.18182H0V13.0909ZM4.90909 18H13.0909V16.3636H4.90909V18ZM3.27273 13.0909H9.81818V11.4545H3.27273V13.0909ZM13.0909 16.3636H14.7273V14.7273H13.0909V16.3636ZM9.81818 11.4545H11.4545V9.81818H9.81818V11.4545ZM14.7273 14.7273H16.3636V13.0909H14.7273V14.7273ZM11.4545 9.81818H13.0909V3.27273H11.4545V9.81818ZM16.3636 13.0909H18V4.90909H16.3636V13.0909ZM13.0909 3.27273H14.7273V1.63636H13.0909V3.27273ZM14.7273 4.90909H16.3636V3.27273H14.7273V4.90909Z" fill="white"/>
</svg>
