<svg width="20" height="20" viewBox="0 0 20 20" fill="none" xmlns="http://www.w3.org/2000/svg">
<path d="M3.54545 13.9286H17.7273V12.1875H3.54545V13.9286ZM1.77273 12.1875H3.54545V10.4464H1.77273V12.1875ZM0 10.4464H1.77273V5.22321H0V10.4464ZM1.77273 5.22321H3.54545V3.48214H1.77273V5.22321ZM3.54545 3.48214H5.31818V1.74107H3.54545V3.48214ZM5.31818 1.74107H8.86364V0H5.31818V1.74107ZM8.86364 3.48214H10.6364V1.74107H8.86364V3.48214ZM17.7273 12.1875H19.5V6.96429H17.7273V12.1875ZM10.6364 5.22321H15.9545V3.48214H10.6364V5.22321ZM15.9545 6.96429H17.7273V5.22321H15.9545V6.96429Z" fill="white"/>
<rect x="9.75" y="15.3214" width="1.39286" height="1.39286" fill="white"/>
<rect x="9.75" y="15.3214" width="1.39286" height="1.39286" fill="white"/>
<rect x="8.35715" y="16.7143" width="1.39286" height="1.39286" fill="white"/>
<rect x="8.35715" y="16.7143" width="1.39286" height="1.39286" fill="white"/>
<rect x="6.96429" y="18.1071" width="1.39286" height="1.39286" fill="white"/>
<rect x="6.96429" y="18.1071" width="1.39286" height="1.39286" fill="white"/>
<rect x="15.3214" y="15.3214" width="1.39286" height="1.39286" fill="white"/>
<rect x="15.3214" y="15.3214" width="1.39286" height="1.39286" fill="white"/>
<rect x="13.9286" y="16.7143" width="1.39286" height="1.39286" fill="white"/>
<rect x="13.9286" y="16.7143" width="1.39286" height="1.39286" fill="white"/>
<rect x="12.5357" y="18.1071" width="1.39286" height="1.39286" fill="white"/>
<rect x="12.5357" y="18.1071" width="1.39286" height="1.39286" fill="white"/>
<rect x="4.17856" y="15.3214" width="1.39286" height="1.39286" fill="white"/>
<rect x="4.17856" y="15.3214" width="1.39286" height="1.39286" fill="white"/>
<rect x="2.78571" y="16.7143" width="1.39286" height="1.39286" fill="white"/>
<rect x="2.78571" y="16.7143" width="1.39286" height="1.39286" fill="white"/>
<rect x="1.39285" y="18.1071" width="1.39286" height="1.39286" fill="white"/>
<rect x="1.39285" y="18.1071" width="1.39286" height="1.39286" fill="white"/>
</svg>
