<svg width="18" height="18" viewBox="0 0 18 18" fill="none" xmlns="http://www.w3.org/2000/svg">
<rect y="6.75" width="2.25" height="2.25" fill="black"/>
<rect y="6.75" width="2.25" height="2.25" fill="black"/>
<rect y="6.75" width="2.25" height="2.25" fill="black"/>
<rect y="9" width="2.25" height="2.25" fill="black"/>
<rect y="9" width="2.25" height="2.25" fill="black"/>
<rect y="9" width="2.25" height="2.25" fill="black"/>
<rect x="2.25" width="2.25" height="2.25" fill="black"/>
<rect x="2.25" width="2.25" height="2.25" fill="black"/>
<rect x="2.25" width="2.25" height="2.25" fill="black"/>
<rect x="4.5" width="2.25" height="2.25" fill="black"/>
<rect x="4.5" width="2.25" height="2.25" fill="black"/>
<rect x="4.5" width="2.25" height="2.25" fill="black"/>
<rect x="6.75" width="2.25" height="2.25" fill="black"/>
<rect x="6.75" width="2.25" height="2.25" fill="black"/>
<rect x="6.75" width="2.25" height="2.25" fill="black"/>
<rect x="11.25" y="2.25" width="2.25" height="2.25" fill="black"/>
<rect x="11.25" y="2.25" width="2.25" height="2.25" fill="black"/>
<rect x="11.25" y="2.25" width="2.25" height="2.25" fill="black"/>
<rect x="11.25" y="4.5" width="2.25" height="2.25" fill="black"/>
<rect x="11.25" y="4.5" width="2.25" height="2.25" fill="black"/>
<rect x="11.25" y="4.5" width="2.25" height="2.25" fill="black"/>
<rect x="11.25" y="6.75" width="2.25" height="2.25" fill="black"/>
<rect x="11.25" y="6.75" width="2.25" height="2.25" fill="black"/>
<rect x="11.25" y="6.75" width="2.25" height="2.25" fill="black"/>
<rect x="6.75" y="11.25" width="2.25" height="2.25" fill="black"/>
<rect x="6.75" y="11.25" width="2.25" height="2.25" fill="black"/>
<rect x="6.75" y="11.25" width="2.25" height="2.25" fill="black"/>
<rect x="4.5" y="11.25" width="2.25" height="2.25" fill="black"/>
<rect x="4.5" y="11.25" width="2.25" height="2.25" fill="black"/>
<rect x="4.5" y="11.25" width="2.25" height="2.25" fill="black"/>
<rect x="2.25" y="11.25" width="2.25" height="2.25" fill="black"/>
<rect x="2.25" y="11.25" width="2.25" height="2.25" fill="black"/>
<rect x="2.25" y="11.25" width="2.25" height="2.25" fill="black"/>
<rect y="4.5" width="2.25" height="2.25" fill="black"/>
<rect y="4.5" width="2.25" height="2.25" fill="black"/>
<rect y="4.5" width="2.25" height="2.25" fill="black"/>
<rect y="2.25" width="2.25" height="2.25" fill="black"/>
<rect y="2.25" width="2.25" height="2.25" fill="black"/>
<rect y="2.25" width="2.25" height="2.25" fill="black"/>
<rect x="9" width="2.25" height="2.25" fill="black"/>
<rect x="9" width="2.25" height="2.25" fill="black"/>
<rect x="9" width="2.25" height="2.25" fill="black"/>
<rect x="9" y="9" width="2.25" height="2.25" fill="black"/>
<rect x="9" y="9" width="2.25" height="2.25" fill="black"/>
<rect x="9" y="9" width="2.25" height="2.25" fill="black"/>
<rect x="11.25" y="11.25" width="2.25" height="2.25" fill="black"/>
<rect x="11.25" y="11.25" width="2.25" height="2.25" fill="black"/>
<rect x="11.25" y="11.25" width="2.25" height="2.25" fill="black"/>
<rect x="13.5" y="13.5" width="2.25" height="2.25" fill="black"/>
<rect x="13.5" y="13.5" width="2.25" height="2.25" fill="black"/>
<rect x="13.5" y="13.5" width="2.25" height="2.25" fill="black"/>
<rect x="15.75" y="15.75" width="2.25" height="2.25" fill="black"/>
<rect x="15.75" y="15.75" width="2.25" height="2.25" fill="black"/>
<rect x="15.75" y="15.75" width="2.25" height="2.25" fill="black"/>
</svg>
