<svg width="18" height="18" viewBox="0 0 18 18" fill="none" xmlns="http://www.w3.org/2000/svg">
<path d="M14.7273 18H16.3636V9.81818H18V4.90909H16.3636V0H14.7273V4.90909H13.0909V9.81818H14.7273V18ZM1.63636 18H3.27273V11.4545H4.90909V6.54545H3.27273V0H1.63636V6.54545H0V11.4545H1.63636V18ZM1.63636 9.81818V8.18182H3.27273V9.81818H1.63636ZM8.18182 18H9.81818V14.7273H11.4545V9.81818H9.81818V0H8.18182V9.81818H6.54545V14.7273H8.18182V18ZM8.18182 13.0909V11.4545H9.81818V13.0909H8.18182ZM14.7273 8.18182V6.54545H16.3636V8.18182H14.7273Z" fill="black"/>
</svg>
