<svg width="21" height="21" viewBox="0 0 21 21" fill="none" xmlns="http://www.w3.org/2000/svg">
<path d="M7.33333 7.33333H5.5V12.8333H7.33333V7.33333ZM7.33333 7.33333H12.8333V5.5H7.33333V7.33333ZM1.83333 18.3333H3.66667V16.5H1.83333V18.3333ZM3.66667 16.5H5.5V14.6667H3.66667V16.5ZM9.16667 20.1667H11V16.5H9.16667V20.1667ZM0 11H3.66667V9.16667H0V11ZM7.33333 14.6667H12.8333V12.8333H7.33333V14.6667ZM1.83333 3.66667H3.66667V1.83333H1.83333V3.66667ZM3.66667 5.5H5.5V3.66667H3.66667V5.5ZM14.6667 16.5H16.5V14.6667H14.6667V16.5ZM16.5 18.3333H18.3333V16.5H16.5V18.3333ZM12.8333 12.8333H14.6667V7.33333H12.8333V12.8333ZM9.16667 3.66667H11V0H9.16667V3.66667ZM16.5 11H20.1667V9.16667H16.5V11ZM14.6667 5.5H16.5V3.66667H14.6667V5.5ZM16.5 3.66667H18.3333V1.83333H16.5V3.66667Z" fill="white"/>
</svg>
