<svg width="21" height="29" viewBox="0 0 21 29" fill="none" xmlns="http://www.w3.org/2000/svg">
<path d="M18.6667 26.5771H2.33333V29H18.6667V26.5771ZM18.6667 26.5771H21V4.77151H18.6667V26.5771ZM4.66667 24.1543H7V16.8857H4.66667V24.1543ZM0 26.5771H2.33333C2.33333 26.5771 2.33333 13.2871 2.33333 4.77151C1.42211 4.77151 0 4.77151 0 4.77151V26.5771ZM9.33333 19.3086H11.6667V12.0401H9.33333V19.3086ZM14 24.1543H16.3333V16.8857H14V24.1543ZM14 14.4629H16.3333V7.19435H14V14.4629ZM2.33333 4.77151C8.7119 4.77151 18.6667 4.77151 18.6667 4.77151V2.34866H2.33333C2.33333 2.34866 2.33333 3.82533 2.33333 4.77151Z" fill="#FF0000"/>
<path d="M6.77866 2.34858L6.77866 0L14 4.38219e-07V2.34858L6.77866 2.34858Z" fill="#FF0000"/>
</svg>
